<mxfile host="app.diagrams.net" agent="Mozilla/5.0 (Windows NT 10.0; Win64; x64) AppleWebKit/537.36 (KHTML, like Gecko) Chrome/137.0.0.0 Safari/537.36" version="26.2.13">
  <diagram name="Page-1" id="za-UPGzjBVwGZ5GgErZP">
    <mxGraphModel dx="853" dy="449" grid="1" gridSize="10" guides="1" tooltips="1" connect="1" arrows="1" fold="1" page="1" pageScale="1" pageWidth="827" pageHeight="1169" math="0" shadow="0">
      <root>
        <mxCell id="0" />
        <mxCell id="1" parent="0" />
        <mxCell id="RfIpu_jiJwAkkz3vzaJm-1" value="Customer Service" style="rounded=1;whiteSpace=wrap;html=1;shadow=1;" vertex="1" parent="1">
          <mxGeometry x="210" y="445" width="130" height="80" as="geometry" />
        </mxCell>
        <mxCell id="RfIpu_jiJwAkkz3vzaJm-2" value="Risk Service" style="rounded=1;whiteSpace=wrap;html=1;shadow=1;" vertex="1" parent="1">
          <mxGeometry x="440" y="250" width="130" height="90" as="geometry" />
        </mxCell>
        <mxCell id="RfIpu_jiJwAkkz3vzaJm-15" style="edgeStyle=orthogonalEdgeStyle;rounded=0;orthogonalLoop=1;jettySize=auto;html=1;entryX=0;entryY=0.25;entryDx=0;entryDy=0;strokeColor=#82b366;fillColor=#d5e8d4;" edge="1" parent="1" source="RfIpu_jiJwAkkz3vzaJm-3" target="RfIpu_jiJwAkkz3vzaJm-1">
          <mxGeometry relative="1" as="geometry">
            <Array as="points">
              <mxPoint x="110" y="485" />
              <mxPoint x="110" y="465" />
            </Array>
          </mxGeometry>
        </mxCell>
        <mxCell id="RfIpu_jiJwAkkz3vzaJm-16" style="edgeStyle=orthogonalEdgeStyle;rounded=0;orthogonalLoop=1;jettySize=auto;html=1;entryX=0;entryY=0.75;entryDx=0;entryDy=0;fillColor=#fff2cc;strokeColor=#d6b656;" edge="1" parent="1" source="RfIpu_jiJwAkkz3vzaJm-3" target="RfIpu_jiJwAkkz3vzaJm-1">
          <mxGeometry relative="1" as="geometry">
            <Array as="points">
              <mxPoint x="110" y="485" />
              <mxPoint x="110" y="505" />
            </Array>
          </mxGeometry>
        </mxCell>
        <mxCell id="RfIpu_jiJwAkkz3vzaJm-3" value="Client" style="shape=umlActor;verticalLabelPosition=bottom;verticalAlign=top;html=1;outlineConnect=0;shadow=1;" vertex="1" parent="1">
          <mxGeometry x="50" y="455" width="30" height="60" as="geometry" />
        </mxCell>
        <mxCell id="RfIpu_jiJwAkkz3vzaJm-5" value="Check Validation Service" style="rounded=1;whiteSpace=wrap;html=1;shadow=1;" vertex="1" parent="1">
          <mxGeometry x="580" y="370" width="130" height="90" as="geometry" />
        </mxCell>
        <mxCell id="RfIpu_jiJwAkkz3vzaJm-6" value="Loan Provider Service" style="rounded=1;whiteSpace=wrap;html=1;shadow=1;" vertex="1" parent="1">
          <mxGeometry x="440" y="630" width="130" height="90" as="geometry" />
        </mxCell>
        <mxCell id="RfIpu_jiJwAkkz3vzaJm-7" value="Notification Service" style="rounded=1;whiteSpace=wrap;html=1;shadow=1;" vertex="1" parent="1">
          <mxGeometry x="580" y="510" width="130" height="90" as="geometry" />
        </mxCell>
        <mxCell id="RfIpu_jiJwAkkz3vzaJm-8" value="1" style="ellipse;whiteSpace=wrap;html=1;fillColor=#d5e8d4;strokeColor=#82b366;shadow=1;" vertex="1" parent="1">
          <mxGeometry x="140" y="455" width="30" height="30" as="geometry" />
        </mxCell>
        <mxCell id="RfIpu_jiJwAkkz3vzaJm-20" value="2" style="ellipse;whiteSpace=wrap;html=1;fillColor=#fff2cc;strokeColor=#d6b656;shadow=1;" vertex="1" parent="1">
          <mxGeometry x="140" y="495" width="30" height="30" as="geometry" />
        </mxCell>
        <mxCell id="RfIpu_jiJwAkkz3vzaJm-27" value="" style="endArrow=classic;startArrow=classic;html=1;rounded=0;entryX=0;entryY=0.5;entryDx=0;entryDy=0;exitX=1;exitY=0.25;exitDx=0;exitDy=0;fillColor=#d5e8d4;strokeColor=#82b366;" edge="1" parent="1" source="RfIpu_jiJwAkkz3vzaJm-1" target="RfIpu_jiJwAkkz3vzaJm-2">
          <mxGeometry width="50" height="50" relative="1" as="geometry">
            <mxPoint x="340" y="310" as="sourcePoint" />
            <mxPoint x="430" y="310" as="targetPoint" />
            <Array as="points">
              <mxPoint x="370" y="465" />
              <mxPoint x="390" y="465" />
              <mxPoint x="390" y="295" />
            </Array>
          </mxGeometry>
        </mxCell>
        <mxCell id="RfIpu_jiJwAkkz3vzaJm-29" value="" style="endArrow=classic;startArrow=classic;html=1;rounded=0;entryX=0;entryY=0.5;entryDx=0;entryDy=0;exitX=1;exitY=0.75;exitDx=0;exitDy=0;fillColor=#fff2cc;strokeColor=#d6b656;" edge="1" parent="1" source="RfIpu_jiJwAkkz3vzaJm-1" target="RfIpu_jiJwAkkz3vzaJm-5">
          <mxGeometry width="50" height="50" relative="1" as="geometry">
            <mxPoint x="280" y="540" as="sourcePoint" />
            <mxPoint x="330" y="490" as="targetPoint" />
            <Array as="points">
              <mxPoint x="450" y="505" />
              <mxPoint x="450" y="415" />
            </Array>
          </mxGeometry>
        </mxCell>
        <mxCell id="RfIpu_jiJwAkkz3vzaJm-31" value="" style="endArrow=classic;startArrow=classic;html=1;rounded=0;entryX=0;entryY=0.5;entryDx=0;entryDy=0;exitX=1;exitY=0.5;exitDx=0;exitDy=0;" edge="1" parent="1" source="RfIpu_jiJwAkkz3vzaJm-1" target="RfIpu_jiJwAkkz3vzaJm-7">
          <mxGeometry width="50" height="50" relative="1" as="geometry">
            <mxPoint x="280" y="540" as="sourcePoint" />
            <mxPoint x="330" y="490" as="targetPoint" />
            <Array as="points">
              <mxPoint x="490" y="485" />
              <mxPoint x="490" y="530" />
              <mxPoint x="490" y="555" />
            </Array>
          </mxGeometry>
        </mxCell>
        <mxCell id="RfIpu_jiJwAkkz3vzaJm-32" value="" style="endArrow=classic;startArrow=classic;html=1;rounded=0;entryX=0;entryY=0.5;entryDx=0;entryDy=0;exitX=0.5;exitY=1;exitDx=0;exitDy=0;fillColor=#fff2cc;strokeColor=#d6b656;" edge="1" parent="1" source="RfIpu_jiJwAkkz3vzaJm-1" target="RfIpu_jiJwAkkz3vzaJm-6">
          <mxGeometry width="50" height="50" relative="1" as="geometry">
            <mxPoint x="350" y="550" as="sourcePoint" />
            <mxPoint x="400" y="535" as="targetPoint" />
            <Array as="points">
              <mxPoint x="275" y="675" />
            </Array>
          </mxGeometry>
        </mxCell>
        <mxCell id="RfIpu_jiJwAkkz3vzaJm-33" value="1" style="whiteSpace=wrap;html=1;aspect=fixed;fillColor=#d5e8d4;strokeColor=#82b366;shadow=1;" vertex="1" parent="1">
          <mxGeometry x="340" y="360" width="30" height="30" as="geometry" />
        </mxCell>
        <mxCell id="RfIpu_jiJwAkkz3vzaJm-35" value="" style="endArrow=none;dashed=1;html=1;rounded=0;" edge="1" parent="1">
          <mxGeometry width="50" height="50" relative="1" as="geometry">
            <mxPoint x="370" y="375" as="sourcePoint" />
            <mxPoint x="390" y="374.66" as="targetPoint" />
          </mxGeometry>
        </mxCell>
        <mxCell id="RfIpu_jiJwAkkz3vzaJm-36" value="2" style="whiteSpace=wrap;html=1;aspect=fixed;fillColor=#d5e8d4;strokeColor=#82b366;shadow=1;" vertex="1" parent="1">
          <mxGeometry x="440" y="510" width="30" height="30" as="geometry" />
        </mxCell>
        <mxCell id="RfIpu_jiJwAkkz3vzaJm-38" value="" style="endArrow=none;dashed=1;html=1;rounded=0;exitX=1;exitY=0.5;exitDx=0;exitDy=0;" edge="1" parent="1" source="RfIpu_jiJwAkkz3vzaJm-36">
          <mxGeometry width="50" height="50" relative="1" as="geometry">
            <mxPoint x="280" y="540" as="sourcePoint" />
            <mxPoint x="490" y="525" as="targetPoint" />
          </mxGeometry>
        </mxCell>
        <mxCell id="RfIpu_jiJwAkkz3vzaJm-39" value="1" style="whiteSpace=wrap;html=1;aspect=fixed;fillColor=#fff2cc;strokeColor=#d6b656;shadow=1;" vertex="1" parent="1">
          <mxGeometry x="500" y="430" width="30" height="30" as="geometry" />
        </mxCell>
        <mxCell id="RfIpu_jiJwAkkz3vzaJm-41" value="" style="endArrow=none;dashed=1;html=1;rounded=0;entryX=0.5;entryY=0;entryDx=0;entryDy=0;" edge="1" parent="1" target="RfIpu_jiJwAkkz3vzaJm-39">
          <mxGeometry width="50" height="50" relative="1" as="geometry">
            <mxPoint x="515" y="415" as="sourcePoint" />
            <mxPoint x="330" y="485" as="targetPoint" />
          </mxGeometry>
        </mxCell>
        <mxCell id="RfIpu_jiJwAkkz3vzaJm-42" value="2" style="whiteSpace=wrap;html=1;aspect=fixed;fillColor=#fff2cc;strokeColor=#d6b656;shadow=1;" vertex="1" parent="1">
          <mxGeometry x="300" y="585" width="30" height="30" as="geometry" />
        </mxCell>
        <mxCell id="RfIpu_jiJwAkkz3vzaJm-43" value="" style="endArrow=none;dashed=1;html=1;rounded=0;entryX=0;entryY=0.5;entryDx=0;entryDy=0;" edge="1" parent="1" target="RfIpu_jiJwAkkz3vzaJm-42">
          <mxGeometry width="50" height="50" relative="1" as="geometry">
            <mxPoint x="275" y="600" as="sourcePoint" />
            <mxPoint x="305" y="600" as="targetPoint" />
          </mxGeometry>
        </mxCell>
        <mxCell id="RfIpu_jiJwAkkz3vzaJm-44" value="3" style="whiteSpace=wrap;html=1;aspect=fixed;fillColor=#fff2cc;strokeColor=#d6b656;shadow=1;" vertex="1" parent="1">
          <mxGeometry x="510" y="510" width="30" height="30" as="geometry" />
        </mxCell>
        <mxCell id="RfIpu_jiJwAkkz3vzaJm-45" value="" style="endArrow=none;dashed=1;html=1;rounded=0;entryX=0;entryY=0.5;entryDx=0;entryDy=0;" edge="1" parent="1" target="RfIpu_jiJwAkkz3vzaJm-44">
          <mxGeometry width="50" height="50" relative="1" as="geometry">
            <mxPoint x="490" y="525" as="sourcePoint" />
            <mxPoint x="500" y="535" as="targetPoint" />
          </mxGeometry>
        </mxCell>
      </root>
    </mxGraphModel>
  </diagram>
</mxfile>
